<svg xmlns="http://www.w3.org/2000/svg" version="1.1" xmlns:xlink="http://www.w3.org/1999/xlink" xmlns:svgjs="http://svgjs.dev/svgjs" width="1500" height="500" viewBox="0 0 1500 500"><g transform="matrix(1,0,0,1,-0.9090909090909918,-0.6371060761700562)"><svg viewBox="0 0 396 132" data-background-color="#ffffff" preserveAspectRatio="xMidYMid meet" height="500" width="1500" xmlns="http://www.w3.org/2000/svg" xmlns:xlink="http://www.w3.org/1999/xlink"><g id="tight-bounds" transform="matrix(1,0,0,1,0.2400000000000091,0.1681960041088928)"><svg viewBox="0 0 395.52 131.66360799178221" height="131.66360799178221" width="395.52"><g><svg viewBox="0 0 603.807849508134 200.99999999999997" height="131.66360799178221" width="395.52"><g><rect width="5.580580608612442" height="200.99999999999997" x="231.94377799043068" y="0" fill="#d7dbde" opacity="1" stroke-width="0" stroke="transparent" fill-opacity="1" class="rect-yte-0" data-fill-palette-color="primary" rx="1%" id="yte-0" data-palette-color="#d7dbde"></rect></g><g transform="matrix(1,0,0,1,252.1332083598087,0.4999999999999858)"><svg viewBox="0 0 351.6746411483254 200" height="200" width="351.6746411483254"><g id="textblocktransform"><svg viewBox="0 0 351.6746411483254 200" height="200" width="351.6746411483254" id="textblock"><g><svg viewBox="0 0 351.6746411483254 200" height="200" width="351.6746411483254"><g transform="matrix(1,0,0,1,0,0)"><svg width="351.6746411483254" viewBox="1.3500000000000012 -37.800000000000004 221.25 122.4" height="200" data-palette-color="#d7dbde"><svg></svg><svg></svg><svg></svg><g class="wordmark-text-0" data-fill-palette-color="primary" id="text-0"><path d="M10.75-18.1l0.25 11.05 0.3 4.55 3.65 1-0.25 2-6.1-0.5-6.85 0.5 0.1-2 3.75-1 0.35-5.4 0.2-10.3-0.15-9.85-0.35-4.45-3.65-1 0.25-2 6.1 0.5 6.85-0.5-0.1 2-3.8 1-0.35 4.35zM32.8-1.2l-2.8 1.7-3.4 0.5-3.55-1.2-1.6-4 0.25-9.3-0.25-8.4-3.45-0.5-0.3-1.75 3.95-1.05 1.8-5.05h2.55l-0.15 5.6 6.05 0.2-0.3 2.2-5.25 0.35-0.2 2.3 0.2 15.15 1 3 4.7-1.25zM53.5-19.8l0.05 10.7 0.35 7.05 3.45 0.5-0.35 1.65-6.95 0.6-0.65-2.95h-0.25l-4.95 2.95h-5.2l-3.5-2.55-1.05-4.9 2.2-3.9 6-2.6 6.6-0.25-0.2-6.25-0.95-3.1-4.05-1.15-4.85 1.15-0.15 5.3-1.95 0.4-1.3-6.85 5.75-1.7 6.45-0.3 3.9 1.9zM39.3-6.85l1.35 4.05 3.75 0.95 5.05-2.9-0.2-6.75h-4.35l-3.85 1.55zM64.9 0l-6.1 0.25 0.1-1.75 3.3-1 0.25-5.25 0.2-10.95-0.3-11.15-0.25-5-3.55 0.15-0.25-1.75 6.9-1.35 2.5 0.55-0.35 6.6-0.3 17.5 0.15 4.85 0.4 5.8 3.65 1-0.25 1.75zM82.15-24.95l-0.35 6.8-0.3 5 0.15 4.85 0.2 5.8 3.65 1-0.25 1.75-5.9-0.25-6.1 0.25 0.1-1.75 3.3-1 0.25-5.25-0.1-9.6-0.25-5.2-3.55 0.15-0.25-1.75 6.9-1.35zM75.1-34.4l1.15-1.85 2.25-1.05 2.3 0.75 1.05 2.6-1.35 2.1-2.25 0.9-2.1-1.3zM106.75-19.8l0.05 10.7 0.35 7.05 3.45 0.5-0.35 1.65-6.95 0.6-0.65-2.95h-0.25l-4.95 2.95h-5.2l-3.5-2.55-1.05-4.9 2.2-3.9 6-2.6 6.6-0.25-0.2-6.25-0.95-3.1-4.05-1.15-4.85 1.15-0.15 5.3-1.95 0.4-1.3-6.85 5.75-1.7 6.45-0.3 3.9 1.9zM92.55-6.85l1.35 4.05 3.75 0.95 5.05-2.9-0.2-6.75h-4.35l-3.85 1.55zM137-8.3l0.4 5.85 3.55 0.95-0.25 1.75-5.9-0.25-6.1 0.25 0.1-1.75 3.3-1 0.35-5.25-0.2-10.9-1.35-3.3-4.25-0.75-5.45 2.8-0.1 1.75-0.3 5 0.1 4.85 0.25 5.8 3.65 1-0.25 1.75-5.9-0.25-6.1 0.25 0.1-1.75 3.3-1 0.35-5.25-0.45-14.8-3.55 0.15-0.25-1.75 6.9-1.35 2.5 0.55-0.15 2.55 5.35-3.25 5.1-0.35 4.6 3.15 0.75 4z" fill="#d7dbde" fill-rule="nonzero" stroke="none" stroke-width="1" stroke-linecap="butt" stroke-linejoin="miter" stroke-miterlimit="10" stroke-dasharray="" stroke-dashoffset="0" font-family="none" font-weight="none" font-size="none" text-anchor="none" style="mix-blend-mode: normal" data-fill-palette-color="primary" opacity="1"></path><path transform="translate(0,41.8)" d="M19.8-16.9l-0.9-6.25-6.3-0.5-4.5 4.8-1.3 5.2 0.65 5.3 3.2 5.8 6.15 1 4.7-2.5 0.9 1.3-3.95 3.15-4.7 0.6-7.15-2.05-4.45-7.25-0.05-8.35 3.4-5.95 5.25-2.75 4.55-0.65 7.65 1-1.5 7.85zM27.8-4.55l-1.65-4.95v-6.55l2.95-5.95 5.65-3.75 6.85-0.25 6.25 3.75 3.25 6-0.6 9.15-3.7 5.9-7.75 2.2-6.5-1.25zM34.8-23.2l-3.15 5.45-0.25 5.6 0.6 5.8 2.15 3.75 5.3 1.3 4.9-2.15 1.45-7.8-0.5-6.5-1.85-4.15-3.65-1.85zM78.35-8.3l0.4 5.85 3.55 0.95-0.25 1.75-5.9-0.25-6.1 0.25 0.1-1.75 3.3-1 0.35-5.25-0.2-10.9-1.35-3.3-4.25-0.75-4.95 2.65-0.1 1.9-0.3 5 0.1 4.85 0.25 5.8 3.65 1-0.25 1.75-5.9-0.25-6.1 0.25 0.1-1.75 3.3-1 0.35-5.25-0.2-9.6-0.25-5.2-3.55 0.15-0.25-1.75 6.9-1.35 2.5 0.55-0.15 2.35 4.85-3.05 5.1-0.35 4.6 3.15 0.25 1.35 5-4.15 5.1-0.35 4.6 3.15 0.75 4-0.1 10.55 0.4 5.85 3.55 0.95-0.25 1.75-5.9-0.25-6.1 0.25 0.1-1.75 3.3-1 0.35-5.25-0.2-10.9-1.35-3.3-4.25-0.75-4.6 3.35 0.1 0.5zM106.75-25.1l0.05 2.35h0.35l5.35-3.25 5.55 0.6 3.65 2.6 2.9 5.95 0.05 8.5-1.9 3.95-5.75 4.65-5.55 0.75-4.75-1.25 0.15 4.45 0.4 5.8 3.65 1-0.25 1.75-6.1-0.25-6.1 0.25 0.1-1.75 3.3-1 0.25-5.25 0.2-10.95-0.3-11.15-0.25-5.35-3.55 0.15-0.25-1.75 6.9-1.35zM107-18.15l-0.25 15.15 5.4 1.75 3.15-0.9 3.85-4.1 0.7-5.75-1.5-8.4-4.45-2.65-7 2.4zM130.5-4.55l-1.65-4.95v-6.55l2.95-5.95 5.65-3.75 6.85-0.25 6.25 3.75 3.25 6-0.6 9.15-3.7 5.9-7.75 2.2-6.5-1.25zM137.5-23.2l-3.15 5.45-0.25 5.6 0.6 5.8 2.15 3.75 5.3 1.3 4.9-2.15 1.45-7.8-0.5-6.5-1.85-4.15-3.65-1.85zM160.65-7.5l0.4 5.55 4.15 0.65 4.65-0.65 1.1-3.4-1.35-2.6-9.3-5.65-2-3.15-0.1-5.3 3.55-3 5.25-0.95 7.35 1.5-1.05 7.35-2.1-0.7-0.95-5.2-3.45-0.65-3.75 0.85-0.95 2.75 1.2 2.95 9.6 5.5 2.35 2.95 0.2 4.7-3.4 4-6 1-4.15-0.2-4.65-1.8 1.25-7.2zM192.9-12.9l-8.65-0.55-0.05 0.45 1.35 7.05 3.95 3.9 4.6 0.5 4.7-2.5 0.9 1.3-3.95 3.15-4.7 0.6-4.9-1.15-4.25-3.55-2.55-7.5 0.85-6.7 2.6-4.7 5.25-2.9 4.4-0.55 3.5 1.1 2.7 2.45 1.55 4.45 0.05 4.15-0.7 0.55zM190.55-23.8l-3.8 2.25-1.95 3.8-0.3 2.25 7.6 0.1 3.45-0.75-0.3-4.65-1.5-2.55zM212.35-24.95l-0.2 4.05h0.2l3.1-3.55 3.4-1.5 3.75 0.95-0.85 7.45-1.75-0.35-1.25-5.15-3.25 1.05-3.55 4.15-0.25 4.7 0.15 4.85 0.2 5.8 5 1-0.25 1.75-7.25-0.25-6.1 0.25 0.1-1.75 3.3-1 0.25-5.25-0.1-9.6-0.25-5.2-3.55 0.15-0.25-1.75 6.9-1.35z" fill="#d7dbde" fill-rule="nonzero" stroke="none" stroke-width="1" stroke-linecap="butt" stroke-linejoin="miter" stroke-miterlimit="10" stroke-dasharray="" stroke-dashoffset="0" font-family="none" font-weight="none" font-size="none" text-anchor="none" style="mix-blend-mode: normal" data-fill-palette-color="primary" opacity="1"></path><path transform="translate(0,83.6)" d="M20.4-19.8l0.05 10.7 0.35 7.05 3.45 0.5-0.35 1.65-6.95 0.6-0.65-2.95h-0.25l-4.95 2.95h-5.2l-3.5-2.55-1.05-4.9 2.2-3.9 6-2.6 6.6-0.25-0.2-6.25-0.95-3.1-4.05-1.15-4.85 1.15-0.15 5.3-1.95 0.4-1.3-6.85 5.75-1.7 6.45-0.3 3.9 1.9zM6.2-6.85l1.35 4.05 3.75 0.95 5.05-2.9-0.2-6.75h-4.35l-3.85 1.55zM50.65-8.3l0.4 5.85 3.55 0.95-0.25 1.75-5.9-0.25-6.1 0.25 0.1-1.75 3.3-1 0.35-5.25-0.2-10.9-1.35-3.3-4.25-0.75-5.45 2.8-0.1 1.75-0.3 5 0.1 4.85 0.25 5.8 3.65 1-0.25 1.75-5.9-0.25-6.1 0.25 0.1-1.75 3.3-1 0.35-5.25-0.45-14.8-3.55 0.15-0.25-1.75 6.9-1.35 2.5 0.55-0.15 2.55 5.35-3.25 5.1-0.35 4.6 3.15 0.75 4zM76.05 0.7l-0.95-2.95h-0.25l-5.55 3.25-5.55-0.6-3.65-2.6-2.9-5.95-0.05-8.5 1.9-3.95 5.75-4.65 5.55-0.75 4.85 1.25-0.3-9.55-4.15-0.4 0.25-1.75 6.9-1.35 2 0.55-0.35 19.35 0.35 15.85 3.45 0.5-0.35 1.65zM63.45-4.6l4.3 3.05 7.35-2.8 0.1-17.65-5.55-1.75-3.15 0.9-3.85 4.1-0.7 5.75zM105.75-37.25l-0.25 6.8-0.15 8.2 5.55-3.4 5.1-0.35 4.6 3.15 0.75 4-0.1 10.55 0.4 5.85 3.55 0.95-0.25 1.75-5.9-0.25-6.1 0.25 0.1-1.75 3.3-1 0.35-5.25-0.2-10.9-1.35-3.3-4.25-0.75-5.6 2.85-0.1 6.7 0.1 4.85 0.15 5.8 3.65 1-0.25 1.75-5.9-0.25-6.1 0.25 0.1-1.75 3.3-1 0.45-5.25-0.2-21.9-0.35-5.2-3.55 0.15-0.25-1.75 6.9-1.35zM141.6-12.9l-8.65-0.55-0.05 0.45 1.35 7.05 3.95 3.9 4.6 0.5 4.7-2.5 0.9 1.3-3.95 3.15-4.7 0.6-4.9-1.15-4.25-3.55-2.55-7.5 0.85-6.7 2.6-4.7 5.25-2.9 4.4-0.55 3.5 1.1 2.7 2.45 1.55 4.45 0.05 4.15-0.7 0.55zM139.25-23.8l-3.8 2.25-1.95 3.8-0.3 2.25 7.6 0.1 3.45-0.75-0.3-4.65-1.5-2.55zM157.75 0l-6.1 0.25 0.1-1.75 3.3-1 0.25-5.25 0.2-10.95-0.3-11.15-0.25-5-3.55 0.15-0.25-1.75 6.9-1.35 2.5 0.55-0.35 6.6-0.3 17.5 0.15 4.85 0.4 5.8 3.65 1-0.25 1.75zM169.65-7.5l0.4 5.55 4.15 0.65 4.65-0.65 1.1-3.4-1.35-2.6-9.3-5.65-2-3.15-0.1-5.3 3.55-3 5.25-0.95 7.35 1.5-1.05 7.35-2.1-0.7-0.95-5.2-3.45-0.65-3.75 0.85-0.95 2.75 1.2 2.95 9.6 5.5 2.35 2.95 0.2 4.7-3.4 4-6 1-4.15-0.2-4.65-1.8 1.25-7.2z" fill="#d7dbde" fill-rule="nonzero" stroke="none" stroke-width="1" stroke-linecap="butt" stroke-linejoin="miter" stroke-miterlimit="10" stroke-dasharray="" stroke-dashoffset="0" font-family="none" font-weight="none" font-size="none" text-anchor="none" style="mix-blend-mode: normal" data-fill-palette-color="primary" opacity="1"></path></g></svg></g></svg></g></svg></g></svg></g><g transform="matrix(1,0,0,1,0,31.032512440191354)"><svg viewBox="0 0 217.3349282296651 138.93497511961726" height="138.93497511961726" width="217.3349282296651"><g><svg xmlns="http://www.w3.org/2000/svg" xmlns:xlink="http://www.w3.org/1999/xlink" version="1.1" x="0" y="0" viewBox="5.084 18.16 90 57.534000000000006" enable-background="new 0 0 100 100" xml:space="preserve" height="138.93497511961726" width="217.3349282296651" class="icon-icon-0" data-fill-palette-color="accent" id="icon-0"><g fill="#f84e45" data-fill-palette-color="accent"><path d="M93.32 18.16H6.848C5.875 18.16 5.084 18.951 5.084 19.924V73.93C5.084 74.903 5.875 75.694 6.848 75.694H93.32C94.293 75.694 95.084 74.903 95.084 73.93V19.924C95.084 18.951 94.293 18.16 93.32 18.16M91.591 73.228V70.762H94.262V73.228zM9.399 31.311V33.777H5.906V31.311zM5.906 30.489V28.023H9.399V30.489zM9.399 34.598V37.064H5.906V34.598zM9.399 37.886V40.352H5.906V37.886zM9.399 41.174V43.64H5.906V41.174zM9.399 44.461V46.927H5.906V44.461zM9.399 47.749V50.215H5.906V47.749zM9.399 51.037V53.503H5.906V51.037zM9.399 54.324V56.79H5.906V54.324zM9.399 57.612V60.078H5.906V57.612zM9.399 60.9V63.366H5.906V60.9zM9.399 64.187V66.653H5.906V64.187zM9.399 27.201H5.906V24.735H9.399zM5.906 67.475H9.399V69.941H5.906zM9.399 23.913H5.906V21.447H9.399zM5.906 70.763H9.399V73.229H5.906zM10.221 74.667V18.982H90.769V74.872H10.158A0.4 0.4 0 0 0 10.221 74.667M91.591 64.187H94.262V66.653H91.591zM91.591 63.365V60.9H94.262V63.366zM91.591 60.078V57.612H94.262V60.078zM91.591 56.79V54.324H94.262V56.79zM91.591 53.502V51.036H94.262V53.502zM91.591 50.215V47.749H94.262V50.215zM91.591 46.927V44.461H94.262V46.927zM91.591 43.639V41.173H94.262V43.639zM91.591 40.352V37.886H94.262V40.352zM91.591 37.064V34.598H94.262V37.064zM91.591 33.776V31.31H94.262V33.776zM91.591 30.489V28.023H94.262V30.489zM91.591 27.201V24.735H94.262V27.201zM91.591 67.475H94.262V69.941H91.591zM94.262 23.913H91.591V21.447H94.262zM94.262 19.924V20.626H91.591V18.982H93.32C93.839 18.982 94.262 19.404 94.262 19.924M6.848 18.982H9.399V20.626H5.906V19.924C5.906 19.404 6.328 18.982 6.848 18.982M5.93 74.05H9.399V74.666C9.399 74.743 9.426 74.81 9.462 74.872H6.848A0.93 0.93 0 0 1 5.93 74.05M93.32 74.872H91.591V74.05H94.238A0.93 0.93 0 0 1 93.32 74.872" fill="#f84e45" data-fill-palette-color="accent"></path><path d="M43.508 37.382A0.413 0.413 0 0 0 42.891 37.738V57.073A0.41 0.41 0 0 0 43.302 57.484 0.4 0.4 0 0 0 43.508 57.429L60.253 47.762A0.41 0.41 0 0 0 60.253 47.05zM43.714 56.361V38.449L59.226 47.405z" fill="#f84e45" data-fill-palette-color="accent"></path><path d="M49.646 26.285A20.95 20.95 0 0 0 34.384 32.228 20.95 20.95 0 0 0 28.002 46.749 20.92 20.92 0 0 0 33.751 61.809 20.92 20.92 0 0 0 49.066 68.4 20.94 20.94 0 0 0 63.726 62.449 20.95 20.95 0 0 0 70.108 47.928C70.435 36.319 61.255 26.61 49.646 26.285M48.49 67.57A20.1 20.1 0 0 1 34.35 61.243 20.1 20.1 0 0 1 28.825 46.771C29.134 35.739 38.016 27.098 49.046 27.098 49.239 27.098 49.43 27.101 49.624 27.106 60.78 27.419 69.602 36.749 69.289 47.905 68.974 59.129 59.783 67.884 48.49 67.57" fill="#f84e45" data-fill-palette-color="accent"></path></g></svg></g></svg></g></svg></g><defs></defs></svg><rect width="395.52" height="131.66360799178221" fill="none" stroke="none" visibility="hidden"></rect></g></svg></g></svg>